<svg width="15" height="16" viewBox="0 0 15 16" fill="none" xmlns="http://www.w3.org/2000/svg">
<path d="M7.29171 7.3242L13.725 0.890889C13.9692 0.646722 14.365 0.646722 14.6092 0.890889C14.8534 1.13506 14.8534 1.53092 14.6092 1.77508L8.1759 8.20839H10.8334C11.1784 8.20839 11.4584 8.48839 11.4584 8.83339C11.4584 9.17839 11.1784 9.45839 10.8334 9.45839H6.66671C6.58504 9.45839 6.50412 9.44164 6.42745 9.40997C6.27495 9.34664 6.15346 9.22515 6.09013 9.07265C6.05846 8.99599 6.04171 8.91506 6.04171 8.83339V4.66673C6.04171 4.32173 6.32171 4.04173 6.66671 4.04173C7.01171 4.04173 7.29171 4.32173 7.29171 4.66673V7.3242ZM14.1667 8.20839C13.8217 8.20839 13.5417 8.48839 13.5417 8.83339V12.1667C13.5417 13.4809 12.9809 14.0417 11.6667 14.0417H3.33337C2.01921 14.0417 1.45837 13.4809 1.45837 12.1667V3.83339C1.45837 2.51923 2.01921 1.95839 3.33337 1.95839H6.66671C7.01171 1.95839 7.29171 1.67839 7.29171 1.33339C7.29171 0.988394 7.01171 0.708394 6.66671 0.708394H3.33337C1.31837 0.708394 0.208374 1.81839 0.208374 3.83339V12.1667C0.208374 14.1817 1.31837 15.2917 3.33337 15.2917H11.6667C13.6817 15.2917 14.7917 14.1817 14.7917 12.1667V8.83339C14.7917 8.48839 14.5117 8.20839 14.1667 8.20839Z" fill="#9C9C9C"/>
</svg>
