<svg width="26" height="26" viewBox="0 0 26 26" fill="none" xmlns="http://www.w3.org/2000/svg">
<path d="M13.0013 0C5.83466 0 0.00393106 5.8307 0.00393106 12.9987C0.00393106 14.8654 0.41873 16.744 1.20673 18.4426C1.36006 18.7666 1.3719 19.1773 1.24124 19.5867L0.120142 22.9213C-0.159858 23.764 0.0574779 24.68 0.689478 25.3106C1.13748 25.7586 1.72923 25.9987 2.33857 25.9987C2.58657 25.9987 2.83607 25.9587 3.08141 25.8774L6.40009 24.7627C6.82409 24.628 7.23609 24.6374 7.56676 24.7974C9.25609 25.5827 11.1347 25.9973 13 25.9973C20.168 25.9973 25.9987 20.1667 25.9987 12.9987C25.9987 5.8307 20.1693 0 13.0013 0ZM13.0013 23.9973C11.424 23.9973 9.83728 23.6467 8.41995 22.988C7.63461 22.6134 6.7027 22.5666 5.77737 22.8626L2.44664 23.9814C2.27997 24.0374 2.15987 23.952 2.10387 23.896C2.04787 23.84 1.96258 23.7214 2.01858 23.5547L3.14391 20.2067C3.43324 19.296 3.38661 18.364 3.01728 17.5894C2.35461 16.1627 2.00393 14.576 2.00393 12.9973C2.00393 6.93331 6.93733 1.9987 13.0013 1.9987C19.0667 1.9987 24 6.93198 24 12.9973C24 19.0626 19.0667 23.9973 13.0013 23.9973ZM16.4453 10.2067C16.692 11.6094 16.1053 12.8627 14.7933 13.7347C14.052 14.2267 13.9506 14.4773 13.9466 14.4867C13.796 14.8893 13.4068 15.148 12.9961 15.148C12.8868 15.148 12.7773 15.1306 12.6693 15.092C12.156 14.9093 11.8774 14.364 12.0521 13.8467C12.3228 13.0453 13.1145 12.448 13.6865 12.0693C14.5345 11.5067 14.5439 10.9346 14.4772 10.5533C14.3732 9.9653 13.8706 9.46264 13.2813 9.35864C12.8333 9.27864 12.3841 9.39333 12.0375 9.684C11.6961 9.97067 11.5013 10.3893 11.5013 10.8333C11.5013 11.3853 11.0533 11.8333 10.5013 11.8333C9.94933 11.8333 9.50133 11.3853 9.50133 10.8333C9.50133 9.796 9.95731 8.82002 10.752 8.15202C11.5466 7.48535 12.592 7.20669 13.628 7.38802C15.0373 7.63602 16.196 8.79471 16.4453 10.2067ZM14.3601 17.6667C14.3601 18.4027 13.7641 19 13.0267 19C12.2907 19 11.6865 18.4027 11.6865 17.6667C11.6865 16.9307 12.2774 16.3333 13.0134 16.3333H13.0267C13.7627 16.3333 14.3601 16.9307 14.3601 17.6667Z" fill="#2D2D2D"/>
</svg>
