<svg width="28" height="28" viewBox="0 0 28 28" fill="none" xmlns="http://www.w3.org/2000/svg">
<path d="M14.0001 0.666748C6.64008 0.666748 0.666748 6.64008 0.666748 14.0001C0.666748 21.3601 6.64008 27.3334 14.0001 27.3334C21.3601 27.3334 27.3334 21.3601 27.3334 14.0001C27.3334 6.64008 21.3601 0.666748 14.0001 0.666748ZM19.3734 11.6001L13.1467 17.8134C12.9601 18.0134 12.7067 18.1068 12.4401 18.1068C12.1867 18.1068 11.9334 18.0134 11.7334 17.8134L8.62675 14.7068C8.24008 14.3201 8.24008 13.68 8.62675 13.2934C9.01342 12.9067 9.65341 12.9067 10.0401 13.2934L12.4401 15.6934L17.9601 10.1868C18.3468 9.78677 18.9867 9.78677 19.3734 10.1868C19.7601 10.5734 19.7601 11.2001 19.3734 11.6001Z" fill="#46BF33"/>
</svg>
