<svg width="24" height="24" viewBox="0 0 24 24" fill="none" xmlns="http://www.w3.org/2000/svg">
    <path d="M18.95 6.26001C17.65 5.67001 16.26 5.24 14.82 5C14.64 5.31 14.44 5.73 14.3 6.06C12.76 5.84 11.24 5.84 9.72001 6.06C9.58001 5.73 9.37002 5.31 9.20002 5C7.75002 5.24 6.36001 5.67001 5.07001 6.26001C2.45001 10.08 1.74001 13.81 2.10001 17.49C3.84001 18.74 5.52002 19.5 7.17002 20C7.57002 19.46 7.94 18.88 8.25 18.27C7.65 18.05 7.08001 17.78 6.54001 17.46C6.68001 17.36 6.82002 17.25 6.95002 17.14C10.24 18.63 13.82 18.63 17.07 17.14C17.21 17.25 17.34 17.36 17.48 17.46C16.94 17.78 16.37 18.05 15.77 18.27C16.08 18.88 16.45 19.46 16.85 20C18.5 19.5 20.19 18.74 21.92 17.49C22.36 13.23 21.23 9.53001 18.97 6.26001H18.95ZM8.68 15.17C7.69 15.17 6.88001 14.27 6.88001 13.17C6.88001 12.07 7.67 11.17 8.68 11.17C9.69 11.17 10.5 12.07 10.48 13.17C10.48 14.27 9.68 15.17 8.68 15.17ZM15.32 15.17C14.33 15.17 13.52 14.27 13.52 13.17C13.52 12.07 14.31 11.17 15.32 11.17C16.33 11.17 17.14 12.07 17.12 13.17C17.12 14.27 16.33 15.17 15.32 15.17Z" fill="black"/>
    </svg>
    