<svg width="24" height="24" viewBox="0 0 24 24" fill="none"
    xmlns="http://www.w3.org/2000/svg">
    <path d="M10.48 13.17C10.48 14.27 9.67997 15.17 8.67997 15.17C7.67997 15.17 6.87999 14.27 6.87999 13.17C6.87999 12.07 7.66997 11.17 8.67997 11.17C9.68997 11.17 10.5 12.07 10.48 13.17ZM15.32 11.17C14.31 11.17 13.52 12.07 13.52 13.17C13.52 14.27 14.33 15.17 15.32 15.17C16.31 15.17 17.12 14.27 17.12 13.17C17.14 12.07 16.32 11.17 15.32 11.17ZM22.65 17.57C22.63 17.78 22.52 17.98 22.34 18.1C20.71 19.28 18.98 20.13 17.05 20.72C16.98 20.74 16.9 20.75 16.83 20.75C16.6 20.75 16.37 20.64 16.23 20.45C15.79 19.85 15.4 19.24 15.09 18.62C13.05 19.13 10.94 19.13 8.89 18.62C8.56 19.28 8.16997 19.9 7.73997 20.46C7.54997 20.71 7.22999 20.82 6.91999 20.72C5.01999 20.14 3.28999 19.29 1.62999 18.1C1.44999 17.97 1.33999 17.78 1.31999 17.56C0.919988 13.31 1.92997 9.46998 4.42997 5.82998C4.50997 5.71998 4.60997 5.63 4.73997 5.57C6.10997 4.94 7.55998 4.49999 9.05998 4.24999C9.37998 4.19999 9.68998 4.35 9.83998 4.63C9.95998 4.85 10.07 5.04998 10.16 5.23998C11.38 5.10998 12.61 5.10998 13.84 5.23998C13.94 5.02998 14.06 4.80999 14.17 4.61999C14.33 4.34999 14.63 4.21 14.94 4.26C16.42 4.51 17.87 4.94998 19.26 5.57998C19.38 5.63998 19.49 5.71999 19.57 5.83999C22.05 9.40999 23.09 13.36 22.66 17.57H22.65ZM18.44 6.85998C17.4 6.39998 16.31 6.05999 15.21 5.83999C15.12 6.01999 15.04 6.18999 14.99 6.33999C14.86 6.65999 14.53 6.85999 14.19 6.80999C12.73 6.59999 11.25 6.59999 9.80998 6.80999C9.45998 6.85999 9.12998 6.66999 8.99998 6.33999C8.94998 6.20999 8.86997 6.03999 8.76997 5.83999C7.65997 6.05999 6.57997 6.40998 5.54997 6.85998C3.40997 10.05 2.50999 13.39 2.78999 17.08C4.07999 17.96 5.40999 18.64 6.84999 19.12C6.95999 18.96 7.05998 18.81 7.15998 18.64C6.81998 18.48 6.48 18.3 6.14 18.1C5.93 17.97 5.78997 17.75 5.76997 17.5C5.75997 17.25 5.85998 17.01 6.05998 16.86L6.16999 16.78C6.25999 16.71 6.35998 16.64 6.43998 16.57C6.65998 16.38 6.96997 16.34 7.23997 16.46C10.32 17.85 13.69 17.85 16.74 16.46C17 16.34 17.32 16.38 17.54 16.57C17.65 16.67 17.78 16.76 17.9 16.85C18.11 17 18.22 17.24 18.21 17.49C18.2 17.74 18.06 17.97 17.84 18.1C17.51 18.3 17.17 18.48 16.81 18.64C16.91 18.8 17.01 18.96 17.12 19.12C18.58 18.63 19.91 17.96 21.18 17.08C21.48 13.38 20.58 10.03 18.44 6.85998Z" fill="black"/>
</svg>
    