<svg width="33" height="32" viewBox="0 0 33 32" fill="none" xmlns="http://www.w3.org/2000/svg">
<path d="M23.4733 12C24.7 11.0933 25.5 9.64 25.5 8C25.5 5.24 23.26 3 20.5 3H12.5C9.74 3 7.5 5.24 7.5 8C7.5 9.64 8.30003 11.0933 9.52669 12C8.30003 12.9067 7.5 14.36 7.5 16C7.5 17.64 8.30003 19.0933 9.52669 20C8.30003 20.9067 7.5 22.36 7.5 24C7.5 26.76 9.74 29 12.5 29C15.26 29 17.5 26.76 17.5 24V19.9733C18.34 20.6133 19.3667 21 20.5 21C23.26 21 25.5 18.76 25.5 16C25.5 14.36 24.7 12.9067 23.4733 12ZM23.5 8C23.5 9.65333 22.1533 11 20.5 11H17.5V5H20.5C22.1533 5 23.5 6.34667 23.5 8ZM9.5 8C9.5 6.34667 10.8467 5 12.5 5H15.5V11H12.5C10.8467 11 9.5 9.65333 9.5 8ZM9.5 16C9.5 14.3467 10.8467 13 12.5 13H15.5V19H12.5C10.8467 19 9.5 17.6533 9.5 16ZM15.5 24C15.5 25.6533 14.1533 27 12.5 27C10.8467 27 9.5 25.6533 9.5 24C9.5 22.3467 10.8467 21 12.5 21H15.5V24ZM20.5 19C18.8467 19 17.5 17.6533 17.5 16C17.5 14.3467 18.8467 13 20.5 13C22.1533 13 23.5 14.3467 23.5 16C23.5 17.6533 22.1533 19 20.5 19Z" fill="white"/>
</svg>
