<svg width="32" height="32" viewBox="0 0 32 32" fill="none" xmlns="http://www.w3.org/2000/svg">
<path d="M16 30.3332C8.09596 30.3332 1.66663 23.9038 1.66663 15.9998C1.66663 8.09584 8.09596 1.6665 16 1.6665C23.904 1.6665 30.3333 8.09584 30.3333 15.9998C30.3333 23.9038 23.904 30.3332 16 30.3332ZM16 3.6665C9.19863 3.6665 3.66663 9.1985 3.66663 15.9998C3.66663 22.8012 9.19863 28.3332 16 28.3332C22.8013 28.3332 28.3333 22.8012 28.3333 15.9998C28.3333 9.1985 22.8013 3.6665 16 3.6665ZM17 21.9998V15.9051C17 15.3531 16.552 14.9051 16 14.9051C15.448 14.9051 15 15.3531 15 15.9051V21.9998C15 22.5518 15.448 22.9998 16 22.9998C16.552 22.9998 17 22.5518 17 21.9998ZM17.36 11.3332C17.36 10.5972 16.764 9.99984 16.0267 9.99984H16.0133C15.2773 9.99984 14.6865 10.5972 14.6865 11.3332C14.6865 12.0692 15.2907 12.6665 16.0267 12.6665C16.7627 12.6665 17.36 12.0692 17.36 11.3332Z" fill="#191919"/>
</svg>
