<svg width="605" height="766" viewBox="0 0 605 766" fill="none" xmlns="http://www.w3.org/2000/svg">
<path opacity="0.05" d="M585.984 0.5H604.5V765.5H585.984V0.5ZM546.952 0.5H565.468V765.5H546.952V0.5ZM507.919 0.5H526.435V765.5H507.919V0.5ZM468.887 0.5H487.403V765.5H468.887V0.5ZM429.855 0.5H448.371V765.5H429.855V0.5ZM390.823 0.5H409.339V765.5H390.823V0.5ZM351.79 0.5H370.306V765.5H351.79V0.5ZM312.758 0.5H331.274V765.5H312.758V0.5ZM273.726 0.5H292.242V765.5H273.726V0.5ZM234.694 0.5H253.21V765.5H234.694V0.5ZM195.661 0.5H214.177V765.5H195.661V0.5ZM156.629 0.5H175.145V765.5H156.629V0.5ZM117.597 0.5H136.113V765.5H117.597V0.5ZM78.5645 0.5H97.0806V765.5H78.5645V0.5ZM39.5323 0.5H58.0484V765.5H39.5323V0.5ZM0.5 0.5H19.0161V765.5H0.5V0.5Z" stroke="url(#paint0_linear_128_9242)"/>
<defs>
<linearGradient id="paint0_linear_128_9242" x1="9.75806" y1="0" x2="9.75806" y2="766" gradientUnits="userSpaceOnUse">
<stop/>
<stop offset="1" stop-color="#666666" stop-opacity="0"/>
</linearGradient>
</defs>
</svg>
