<svg width="28" height="28" viewBox="0 0 28 28" fill="none" xmlns="http://www.w3.org/2000/svg">
<path d="M21.42 17.3948C21.08 17.3948 20.7402 17.2654 20.4802 17.0068C19.9575 16.4881 19.9547 15.6428 20.4747 15.1214L23.0987 12.4841C24.112 11.4814 24.6667 10.1387 24.6667 8.69875C24.6667 7.25875 24.1106 5.91076 23.1013 4.90143C21.0133 2.81076 17.6106 2.81343 15.5186 4.90143L12.8975 7.53611C12.3789 8.05744 11.5361 8.06144 11.0121 7.54144C10.4894 7.02277 10.4866 6.17744 11.0066 5.65611L13.6306 3.01878C16.7626 -0.113224 21.8574 -0.113242 24.9867 3.01609C26.5 4.52809 27.3334 6.54675 27.3334 8.69875C27.3334 10.8574 26.4988 12.8721 24.9815 14.3734L22.3653 17.0041C22.1053 17.2641 21.7626 17.3948 21.42 17.3948ZM14.3653 24.9868L17.004 22.3628C17.5266 21.8428 17.5295 20.9988 17.0095 20.4774C16.4895 19.9561 15.6467 19.9521 15.1241 20.4721L12.4841 23.0988C10.3921 25.1894 6.99209 25.1868 4.90143 23.0988C2.81209 21.0081 2.81216 17.6081 4.89882 15.5201L7.53749 12.8961C8.06016 12.3761 8.0627 11.5321 7.5427 11.0108C7.0227 10.4894 6.17995 10.4854 5.65729 11.0054L3.01731 13.6321C-0.113355 16.7614 -0.113355 21.8534 3.01731 24.9841C4.58398 26.5494 6.64002 27.3307 8.69602 27.3307C10.7494 27.3321 12.804 26.5508 14.3653 24.9868ZM10.9428 18.9428L18.9773 10.9094C19.4986 10.3881 19.4986 9.54411 18.9773 9.02411C18.4559 8.50411 17.6135 8.50411 17.0922 9.02411L9.05735 17.0574C8.53602 17.5788 8.53602 18.4228 9.05735 18.9428C9.31735 19.2028 9.65872 19.3334 10.0001 19.3334C10.3414 19.3334 10.6828 19.2028 10.9428 18.9428Z" fill="#0C0C0C"/>
</svg>
