<svg width="32" height="32" viewBox="0 0 32 32" fill="none" xmlns="http://www.w3.org/2000/svg">
<path d="M28.8667 15.3601C28.6934 14.9468 28.3734 14.6401 27.8667 14.4268L24.4134 13.4401C21.6134 12.6534 19.3734 10.4268 18.5867 7.62678L17.6001 4.18677C17.4401 3.64011 17.0267 3.22678 16.48 3.06678C16.0534 2.94678 15.6134 3.00011 15.24 3.21345C14.8534 3.42678 14.5867 3.77344 14.4667 4.18677L13.48 7.62678C12.6934 10.4268 10.4533 12.6534 7.64001 13.4401L4.18673 14.4268C3.64006 14.5734 3.21336 15.0134 3.06669 15.5468C2.82669 16.4134 3.32006 17.3201 4.18673 17.5601L7.64001 18.5468C10.44 19.3334 12.68 21.5601 13.4667 24.3601L14.4534 27.8001C14.6534 28.4934 15.2934 28.9868 16.0134 28.9868C16.7334 28.9868 17.3734 28.5068 17.5867 27.8001L18.5734 24.3468C19.36 21.5468 21.6 19.3201 24.4134 18.5201L27.96 17.5068C28.3733 17.3468 28.7067 17.0134 28.8667 16.6001C29.0401 16.1868 29.0267 15.7334 28.8667 15.3334V15.3601ZM23.8667 16.6268C20.4001 17.6001 17.64 20.3601 16.6534 23.8268L16.0267 26.0401L15.3867 23.8268C14.4 20.3601 11.64 17.6001 8.17338 16.6268L5.96 16.0001L8.17338 15.3734C11.64 14.4001 14.4 11.6401 15.3867 8.17345L16.0267 5.96011L16.6534 8.17345C17.64 11.6401 20.4001 14.4001 23.8667 15.3734L26.08 16.0001L23.8667 16.6268ZM11.1867 24.3201C11.2267 24.4268 11.1867 24.5334 11.08 24.5734L10.0401 24.8668C9.09341 25.1334 8.3467 25.8668 8.08004 26.8134L7.78674 27.8535C7.78674 27.8535 7.72003 27.9601 7.65336 27.9868C7.54669 28.0134 7.44004 27.9601 7.41337 27.8535L7.12008 26.8134C6.85341 25.8668 6.1067 25.1334 5.16003 24.8668L4.12008 24.5734C4.12008 24.5734 4.01336 24.5068 3.98669 24.4401C3.96003 24.3334 4.01341 24.2401 4.12008 24.2001L5.16003 23.9068C6.1067 23.6401 6.85341 22.9068 7.12008 21.9601L7.41337 20.9201C7.41337 20.9201 7.48 20.8134 7.54667 20.7868C7.65334 20.7601 7.76008 20.8134 7.78674 20.9201L8.08004 21.9601C8.3467 22.9068 9.09341 23.6401 10.0401 23.9068L11.08 24.2001C11.08 24.2001 11.1601 24.2534 11.1867 24.3068V24.3201ZM23.2933 6.50678C23.2933 6.50678 23.2267 6.46678 23.2133 6.42678C23.2 6.36012 23.2267 6.29344 23.2933 6.26677L23.9867 6.06678C24.6134 5.89344 25.1067 5.40011 25.2933 4.77344L25.4934 4.0801C25.4934 4.0801 25.5334 4.01344 25.5734 4.00011C25.64 3.98677 25.7067 4.01344 25.7334 4.0801L25.9334 4.77344C26.1067 5.40011 26.6 5.89344 27.24 6.06678L27.9334 6.26677C27.9334 6.26677 27.9867 6.30677 28 6.33344C28.0267 6.40011 28.0001 6.48011 27.9334 6.50678L27.24 6.70677C26.6134 6.88011 26.1201 7.37344 25.9334 8.00011L25.7334 8.69345C25.7334 8.69345 25.6934 8.76011 25.6534 8.77344C25.5867 8.78678 25.52 8.76011 25.4934 8.69345L25.2933 8.00011C25.12 7.37344 24.6267 6.88011 23.9867 6.70677L23.2933 6.50678Z" fill="white"/>
</svg>
