<svg width="112" height="112" viewBox="0 0 112 112" fill="none" xmlns="http://www.w3.org/2000/svg">
<path d="M103.034 53.7602C102.427 52.3135 101.307 51.2402 99.5336 50.4935L87.4468 47.0401C77.6468 44.2868 69.8068 36.4935 67.0535 26.6935L63.6002 14.6535C63.0402 12.7401 61.5934 11.2935 59.6801 10.7335C58.1867 10.3135 56.6468 10.5001 55.3401 11.2468C53.9868 11.9935 53.0534 13.2068 52.6334 14.6535L49.1801 26.6935C46.4267 36.4935 38.5867 44.2868 28.74 47.0401L16.6535 50.4935C14.7402 51.0068 13.2468 52.5468 12.7334 54.4135C11.8934 57.4468 13.6202 60.6201 16.6535 61.4601L28.74 64.9135C38.54 67.6668 46.38 75.4602 49.1334 85.2602L52.5869 97.3002C53.2869 99.7268 55.5269 101.453 58.0469 101.453C60.5669 101.453 62.8068 99.7735 63.5535 97.3002L67.0068 85.2134C69.7601 75.4134 77.6001 67.6201 87.4468 64.8201L99.86 61.2735C101.307 60.7135 102.474 59.5468 103.034 58.1001C103.64 56.6535 103.594 55.0668 103.034 53.6668V53.7602ZM85.5336 58.1935C73.4003 61.6001 63.7401 71.2601 60.2868 83.3934L58.0936 91.1401L55.8534 83.3934C52.4 71.2601 42.7402 61.6001 30.6068 58.1935L22.86 56.0001L30.6068 53.8068C42.7402 50.4001 52.4 40.7402 55.8534 28.6068L58.0936 20.8601L60.2868 28.6068C63.7401 40.7402 73.4003 50.4001 85.5336 53.8068L93.2801 56.0001L85.5336 58.1935Z" fill="#0C0C0C"/>
<path d="M83.2467 22.4933C83.2933 22.6333 83.5266 22.7733 83.5266 22.7733L85.9534 23.4733C88.1934 24.0799 89.92 25.8066 90.5266 28L91.2268 30.4266C91.3201 30.66 91.5534 30.7533 91.7867 30.7066C91.9267 30.66 92.0667 30.4266 92.0667 30.4266L92.7668 28C93.4202 25.8066 95.1467 24.0799 97.3401 23.4733L99.7668 22.7733C100 22.68 100.093 22.4 100 22.1666C99.9534 22.0733 99.7668 21.9333 99.7668 21.9333L97.3401 21.2333C95.1001 20.6266 93.3735 18.9 92.7668 16.7066L92.0667 14.2799C91.9734 14.0466 91.7401 13.9533 91.5067 13.9999C91.3667 14.0466 91.2268 14.2799 91.2268 14.2799L90.5266 16.7066C89.8733 18.9 88.1467 20.6266 85.9534 21.2333L83.5266 21.9333C83.2933 22.0266 83.2 22.26 83.2467 22.4933Z" fill="#FF473B"/>
<path d="M11.0117 93.505C11.0583 93.645 11.2917 93.785 11.2917 93.785L13.7184 94.485C15.9584 95.0917 17.685 96.8183 18.2917 99.0117L18.9918 101.438C19.0851 101.672 19.3184 101.765 19.5517 101.718C19.6917 101.672 19.8317 101.438 19.8317 101.438L20.5318 99.0117C21.1852 96.8183 22.9118 95.0917 25.1051 94.485L27.5318 93.785C27.7652 93.6917 27.8585 93.4117 27.7651 93.1783C27.7185 93.085 27.5318 92.945 27.5318 92.945L25.1051 92.245C22.8651 91.6383 21.1385 89.9117 20.5318 87.7183L19.8317 85.2917C19.7384 85.0583 19.5051 84.965 19.2718 85.0117C19.1318 85.0583 18.9918 85.2917 18.9918 85.2917L18.2917 87.7183C17.6383 89.9117 15.9117 91.6383 13.7184 92.245L11.2917 92.945C11.0583 93.0383 10.965 93.2717 11.0117 93.505Z" fill="#FF473B"/>
</svg>
