<svg width="40" height="40" viewBox="0 0 40 40" fill="none" xmlns="http://www.w3.org/2000/svg">
<path d="M20.0001 13.7498C16.5534 13.7498 13.7501 16.5531 13.7501 19.9998C13.7501 23.4465 16.5534 26.2498 20.0001 26.2498C23.4467 26.2498 26.2501 23.4465 26.2501 19.9998C26.2501 16.5531 23.4467 13.7498 20.0001 13.7498ZM20.0001 23.7498C17.9317 23.7498 16.2501 22.0681 16.2501 19.9998C16.2501 17.9315 17.9317 16.2498 20.0001 16.2498C22.0684 16.2498 23.7501 17.9315 23.7501 19.9998C23.7501 22.0681 22.0684 23.7498 20.0001 23.7498ZM35.3468 23.2548C34.1901 22.5848 33.4701 21.3381 33.4684 19.9998C33.4667 18.6648 34.1818 17.4198 35.3534 16.7415C36.2118 16.2431 36.5051 15.1381 36.0084 14.2781L33.2218 9.46812C32.7251 8.60979 31.6201 8.3148 30.7601 8.8098C29.5951 9.48147 28.1468 9.48147 26.9784 8.80314C25.8268 8.13481 25.1101 6.89313 25.1101 5.56146C25.1101 4.56313 24.2968 3.75146 23.2984 3.75146H16.7067C15.7067 3.75146 14.8951 4.56313 14.8951 5.56146C14.8951 6.89313 14.1784 8.13478 13.0234 8.80645C11.8584 9.48145 10.4117 9.4831 9.24675 8.81143C8.38508 8.31476 7.28177 8.61146 6.7851 9.4698L3.99508 14.2848C3.49841 15.1431 3.79339 16.2464 4.66006 16.7498C5.81506 17.4181 6.53508 18.6631 6.53842 19.9981C6.54175 21.3348 5.82507 22.5831 4.65507 23.2615C4.23841 23.5031 3.93841 23.8914 3.81508 24.3581C3.69174 24.8231 3.75509 25.3081 3.99676 25.7265L6.78174 30.5331C7.27841 31.3931 8.38342 31.6915 9.24675 31.1931C10.4117 30.5215 11.8568 30.5231 13.0051 31.1881L13.0084 31.1898C13.0134 31.1931 13.0184 31.1965 13.0251 31.1998C14.1767 31.8681 14.8917 33.1098 14.8901 34.4431C14.8901 35.4414 15.7017 36.2531 16.7001 36.2531H23.2984C24.2968 36.2531 25.1084 35.4414 25.1084 34.4448C25.1084 33.1114 25.8251 31.8698 26.9817 31.1981C28.1451 30.5231 29.5917 30.5198 30.7584 31.1931C31.6184 31.6898 32.7218 31.3948 33.2201 30.5364L36.0101 25.7215C36.5051 24.8598 36.2101 23.7548 35.3468 23.2548ZM31.3851 28.7114C29.5684 27.9198 27.4601 28.0281 25.7234 29.0331C24.0017 30.0315 22.8651 31.7965 22.6451 33.7498H17.3501C17.1334 31.7965 15.9934 30.0281 14.2717 29.0315C12.5384 28.0265 10.4268 27.9198 8.61509 28.7114L6.48842 25.0398C8.08008 23.8681 9.04173 21.9881 9.03506 19.9881C9.03006 18.0015 8.07007 16.1348 6.48674 14.9631L8.61509 11.2898C10.4284 12.0798 12.5401 11.9731 14.2768 10.9664C15.9968 9.96976 17.1334 8.20313 17.3534 6.25146H22.6451C22.8634 8.2048 24.0018 9.96979 25.7268 10.9698C27.4584 11.9748 29.5701 12.0814 31.3851 11.2914L33.5134 14.9631C31.9251 16.1331 30.9651 18.0098 30.9684 20.0064C30.9701 21.9964 31.9301 23.8664 33.5151 25.0414L31.3851 28.7114Z" fill="#393939"/>
</svg>
