<svg width="40" height="40" viewBox="0 0 40 40" fill="none" xmlns="http://www.w3.org/2000/svg">
<path d="M30.8833 29.1169C31.3716 29.6052 31.3716 30.397 30.8833 30.8853C30.6399 31.1286 30.32 31.2519 29.9999 31.2519C29.6799 31.2519 29.36 31.1303 29.1166 30.8853L19.9999 21.7686L10.8833 30.8853C10.6399 31.1286 10.3199 31.2519 9.99995 31.2519C9.67995 31.2519 9.35995 31.1303 9.11662 30.8853C8.62828 30.397 8.62828 29.6052 9.11662 29.1169L18.2333 20.0003L9.11662 10.8837C8.62828 10.3953 8.62828 9.60361 9.11662 9.11527C9.60495 8.62694 10.3966 8.62694 10.885 9.11527L20.0016 18.232L29.1183 9.11527C29.6066 8.62694 30.3983 8.62694 30.8866 9.11527C31.3749 9.60361 31.3749 10.3953 30.8866 10.8837L21.7699 20.0003L30.8833 29.1169Z" fill="#191919"/>
</svg>
