<svg width="20" height="20" viewBox="0 0 24 24" fill="none" xmlns="http://www.w3.org/2000/svg">
<path d="M19.75 5V15C19.75 15.414 19.414 15.75 19 15.75C18.586 15.75 18.25 15.414 18.25 15V6.81104L6.53005 18.531C6.38405 18.677 6.19202 18.751 6.00002 18.751C5.80802 18.751 5.61599 18.678 5.46999 18.531C5.17699 18.238 5.17699 17.763 5.46999 17.47L17.19 5.75H9.00002C8.58602 5.75 8.25002 5.414 8.25002 5C8.25002 4.586 8.58602 4.25 9.00002 4.25H19C19.098 4.25 19.1951 4.27011 19.2871 4.30811C19.4701 4.38411 19.6161 4.53011 19.6931 4.71411C19.7301 4.80511 19.75 4.902 19.75 5Z" fill="black"/>
</svg>
