<svg width="140" height="31" viewBox="0 0 140 31" fill="none"
    xmlns="http://www.w3.org/2000/svg">
    <path d="M16.3147 10.2759C16.2399 9.34195 15.8897 8.6135 15.264 8.09052C14.6476 7.56753 13.7091 7.30603 12.4483 7.30603C11.6451 7.30603 10.9867 7.40409 10.4731 7.60021C9.96875 7.787 9.59519 8.04382 9.35237 8.37069C9.10956 8.69756 8.98348 9.07112 8.97414 9.49138C8.95546 9.83692 9.01616 10.1498 9.15625 10.43C9.30568 10.7008 9.53915 10.9483 9.85668 11.1724C10.1742 11.3872 10.5805 11.5833 11.0754 11.7608C11.5704 11.9382 12.1588 12.097 12.8405 12.2371L15.194 12.7414C16.7816 13.0776 18.1404 13.5212 19.2705 14.0722C20.4005 14.6232 21.3251 15.2723 22.0442 16.0194C22.7633 16.7572 23.2909 17.5884 23.6272 18.5129C23.9727 19.4375 24.1501 20.4461 24.1595 21.5388C24.1501 23.4253 23.6785 25.0223 22.7446 26.3297C21.8107 27.6372 20.4752 28.6318 18.7381 29.3136C17.0104 29.9953 14.9325 30.3362 12.5043 30.3362C10.0108 30.3362 7.83477 29.9673 5.97629 29.2295C4.12716 28.4917 2.68894 27.357 1.66164 25.8254C0.643678 24.2845 0.130029 22.3139 0.12069 19.9138H7.51724C7.56394 20.7917 7.78341 21.5295 8.17565 22.1272C8.56789 22.7249 9.11889 23.1778 9.82866 23.486C10.5478 23.7942 11.4023 23.9483 12.3922 23.9483C13.2234 23.9483 13.9192 23.8455 14.4795 23.6401C15.0399 23.4346 15.4648 23.1498 15.7543 22.7856C16.0438 22.4213 16.1932 22.0057 16.2026 21.5388C16.1932 21.0999 16.0485 20.717 15.7683 20.3901C15.4975 20.0539 15.0492 19.755 14.4235 19.4935C13.7978 19.2227 12.9526 18.9705 11.8879 18.7371L9.03017 18.1207C6.48994 17.5697 4.48671 16.6498 3.02047 15.361C1.56358 14.0629 0.839799 12.2931 0.849138 10.0517C0.839799 8.2306 1.32543 6.63829 2.30603 5.27478C3.29598 3.90194 4.66415 2.83261 6.41056 2.06681C8.16631 1.301 10.1789 0.918102 12.4483 0.918102C14.7644 0.918102 16.7676 1.30567 18.458 2.08082C20.1483 2.85596 21.4512 3.94863 22.3664 5.35884C23.2909 6.7597 23.7579 8.39871 23.7672 10.2759H16.3147ZM34.2947 17.7284V30H27.4445V1.31034H34.0706V12.4332H34.3087C34.7944 11.107 35.5882 10.0704 36.6902 9.32327C37.8015 8.57615 39.1604 8.20259 40.7667 8.20259C42.2796 8.20259 43.5964 8.53879 44.7171 9.21121C45.8378 9.87428 46.7064 10.8129 47.3227 12.0269C47.9485 13.241 48.2566 14.6606 48.2473 16.2856V30H41.3971V17.6304C41.4064 16.435 41.1076 15.5011 40.5005 14.8287C39.8935 14.1562 39.039 13.82 37.937 13.82C37.2179 13.82 36.5828 13.9788 36.0318 14.2963C35.4901 14.6045 35.0652 15.0481 34.757 15.6272C34.4582 16.2062 34.3041 16.9066 34.2947 17.7284ZM58.8693 30.4063C57.4965 30.4063 56.2731 30.1681 55.1991 29.6918C54.1251 29.2062 53.2752 28.4917 52.6495 27.5485C52.0331 26.5959 51.7249 25.4098 51.7249 23.9903C51.7249 22.7949 51.9444 21.7909 52.3834 20.9784C52.8223 20.1659 53.42 19.5122 54.1765 19.0172C54.9329 18.5223 55.7921 18.1487 56.754 17.8966C57.7253 17.6444 58.7433 17.467 59.8079 17.3642C61.0594 17.2335 62.068 17.1121 62.8338 17C63.5996 16.8786 64.1553 16.7011 64.5008 16.4677C64.8464 16.2342 65.0191 15.8886 65.0191 15.431V15.347C65.0191 14.4598 64.739 13.7733 64.1786 13.2877C63.6276 12.8021 62.8431 12.5593 61.8252 12.5593C60.7512 12.5593 59.8966 12.7974 59.2616 13.2737C58.6265 13.7407 58.2063 14.329 58.0008 15.0388L52.4814 14.5905C52.7616 13.283 53.3126 12.153 54.1344 11.2004C54.9563 10.2385 56.0163 9.50072 57.3144 8.98707C58.6219 8.46408 60.1348 8.20259 61.8532 8.20259C63.0486 8.20259 64.1926 8.34267 65.2853 8.62284C66.3873 8.90302 67.3632 9.33728 68.2131 9.92564C69.0723 10.514 69.7494 11.2705 70.2443 12.195C70.7393 13.1103 70.9868 14.2076 70.9868 15.4871V30H65.3273V27.0162H65.1592C64.8137 27.6886 64.3514 28.2816 63.7724 28.7953C63.1933 29.2996 62.4976 29.6965 61.6851 29.986C60.8726 30.2662 59.934 30.4063 58.8693 30.4063ZM60.5784 26.2877C61.4563 26.2877 62.2314 26.1149 62.9038 25.7694C63.5762 25.4145 64.1039 24.9382 64.4868 24.3405C64.8697 23.7428 65.0612 23.0657 65.0612 22.3093V20.0259C64.8744 20.1473 64.6176 20.2593 64.2907 20.3621C63.9732 20.4555 63.6136 20.5442 63.212 20.6282C62.8104 20.7029 62.4089 20.773 62.0073 20.8384C61.6057 20.8944 61.2415 20.9458 60.9146 20.9925C60.2142 21.0952 59.6025 21.2586 59.0795 21.4828C58.5565 21.7069 58.1502 22.0104 57.8607 22.3933C57.5712 22.7669 57.4265 23.2338 57.4265 23.7942C57.4265 24.6067 57.7206 25.2277 58.309 25.6573C58.9067 26.0776 59.6632 26.2877 60.5784 26.2877ZM83.8257 30.3782C82.1353 30.3782 80.6224 29.944 79.2869 29.0754C77.9514 28.2069 76.8961 26.9461 76.121 25.2931C75.3458 23.6401 74.9582 21.6322 74.9582 19.2694C74.9582 16.8786 75.3505 14.8613 76.135 13.2177C76.9288 11.5647 77.9981 10.3179 79.3429 9.47737C80.6878 8.62751 82.1867 8.20259 83.8397 8.20259C85.1005 8.20259 86.1371 8.41738 86.9496 8.84698C87.7621 9.26724 88.4065 9.77622 88.8828 10.3739C89.3591 10.9623 89.728 11.518 89.9895 12.0409H90.1996V1.31034H95.2848V30H90.2977V26.6099H89.9895C89.728 27.1329 89.3498 27.6886 88.8548 28.2769C88.3598 28.856 87.7061 29.3509 86.8936 29.7619C86.0811 30.1728 85.0585 30.3782 83.8257 30.3782ZM85.2406 26.2177C86.3146 26.2177 87.2298 25.9282 87.9863 25.3491C88.7427 24.7608 89.3171 23.9436 89.7093 22.8976C90.1016 21.8517 90.2977 20.6329 90.2977 19.2414C90.2977 17.8499 90.1016 16.6404 89.7093 15.6131C89.3264 14.5858 88.7567 13.7874 88.0003 13.2177C87.2531 12.648 86.3332 12.3631 85.2406 12.3631C84.1105 12.3631 83.1673 12.6573 82.4108 13.2457C81.6544 13.8341 81.0847 14.6466 80.7018 15.6832C80.3189 16.7198 80.1274 17.9059 80.1274 19.2414C80.1274 20.5862 80.3189 21.7863 80.7018 22.8416C81.094 23.8876 81.6684 24.7141 82.4248 25.3211C83.1906 25.9188 84.1292 26.2177 85.2406 26.2177ZM110.172 30.4343C108.052 30.4343 106.227 29.9813 104.695 29.0754C103.173 28.1602 101.996 26.8761 101.165 25.2231C100.343 23.5607 99.9321 21.6135 99.9321 19.3815C99.9321 17.1774 100.343 15.2349 101.165 13.5539C101.996 11.8728 103.154 10.5607 104.639 9.61746C106.133 8.67421 107.88 8.20259 109.878 8.20259C111.092 8.20259 112.269 8.40338 113.408 8.80496C114.548 9.20654 115.57 9.83692 116.476 10.6961C117.382 11.5553 118.097 12.6713 118.62 14.0442C119.143 15.4077 119.404 17.0654 119.404 19.0172V20.5022H102.3V17.3642H115.3C115.3 16.2622 115.075 15.2863 114.627 14.4364C114.179 13.5772 113.548 12.9001 112.736 12.4052C111.933 11.9102 110.99 11.6627 109.906 11.6627C108.73 11.6627 107.702 11.9522 106.824 12.5312C105.956 13.1009 105.283 13.8481 104.807 14.7726C104.34 15.6879 104.107 16.6825 104.107 17.7565V20.208C104.107 21.6462 104.359 22.8696 104.863 23.8782C105.377 24.8869 106.091 25.6573 107.006 26.1897C107.922 26.7126 108.991 26.9741 110.214 26.9741C111.008 26.9741 111.732 26.8621 112.386 26.6379C113.04 26.4045 113.605 26.0589 114.081 25.6013C114.557 25.1437 114.921 24.5787 115.173 23.9062L119.138 24.6207C118.82 25.7881 118.251 26.8107 117.429 27.6886C116.616 28.5571 115.594 29.2342 114.361 29.7198C113.138 30.1961 111.741 30.4343 110.172 30.4343ZM139.503 13.3017L136.533 14.1422C136.346 13.6473 136.071 13.1663 135.707 12.6994C135.352 12.2231 134.866 11.8308 134.25 11.5226C133.633 11.2144 132.844 11.0603 131.882 11.0603C130.565 11.0603 129.468 11.3639 128.59 11.9709C127.722 12.5686 127.287 13.3297 127.287 14.2543C127.287 15.0761 127.586 15.7252 128.184 16.2015C128.782 16.6778 129.716 17.0747 130.986 17.3922L134.18 18.1767C136.104 18.6437 137.537 19.3581 138.48 20.32C139.424 21.2726 139.895 22.5007 139.895 24.0043C139.895 25.2371 139.54 26.3391 138.831 27.3103C138.13 28.2816 137.15 29.0474 135.889 29.6078C134.628 30.1681 133.162 30.4483 131.49 30.4483C129.295 30.4483 127.479 29.972 126.041 29.0194C124.602 28.0668 123.692 26.6753 123.309 24.8448L126.447 24.0603C126.746 25.2184 127.311 26.0869 128.142 26.6659C128.982 27.245 130.08 27.5345 131.434 27.5345C132.975 27.5345 134.198 27.2076 135.104 26.5539C136.019 25.8908 136.477 25.097 136.477 24.1724C136.477 23.4253 136.216 22.7996 135.693 22.2953C135.17 21.7816 134.366 21.3987 133.283 21.1466L129.697 20.306C127.726 19.8391 126.279 19.1153 125.354 18.1347C124.439 17.1448 123.981 15.9073 123.981 14.4224C123.981 13.2083 124.322 12.1343 125.004 11.2004C125.695 10.2665 126.634 9.5334 127.82 9.00108C129.015 8.46875 130.369 8.20259 131.882 8.20259C134.012 8.20259 135.683 8.66954 136.897 9.60345C138.121 10.5374 138.989 11.7701 139.503 13.3017Z" fill="url(#paint0_linear_36_2)"/>
    <defs>
        <linearGradient id="paint0_linear_36_2" x1="-12.7112" y1="16.6154" x2="175.284" y2="16.6154" gradientUnits="userSpaceOnUse">
            <stop stop-color="#FF7070"/>
            <stop offset="1" stop-color="#FFA14A"/>
        </linearGradient>
    </defs>
</svg>
